<svg width="276" height="36" viewBox="0 0 276 36" fill="none" xmlns="http://www.w3.org/2000/svg">
<path d="M7.25484 16.1805C7.25484 10.4737 9.77952 7.18045 14.0783 7.18045C17.6038 7.18045 19.9692 9.59398 20.2194 12.8647H26.1558V12.3008C25.8829 6.21053 20.8563 2.03759 14.0328 2.03759C5.73094 2.03759 1 7.42857 1 16.1579V19.9925C1 28.7218 5.68545 34 14.0328 34C20.8335 34 25.8602 29.9398 26.1558 24.0526V23.4662H20.2194C19.9692 26.6241 17.6493 28.8571 14.0783 28.8571C9.73403 28.8571 7.25484 25.6767 7.25484 19.9925V16.1805Z" fill="white"/>
<path d="M32.3197 33.4135H38.2789V20.1504C38.2789 16.5188 40.2349 14.0827 43.3737 14.0827C45.8529 14.0827 47.809 15.5263 47.809 19.0677V33.4135H53.7909V17.4211C53.7909 11.8496 50.4701 9.09774 45.7847 9.09774C41.0992 9.09774 39.0977 11.985 38.5973 13.6992H38.2789V1H32.3197V33.4135Z" fill="white"/>
<path d="M70.6903 33.8421C77.582 33.8421 80.5616 29.5789 80.8118 26.6015H75.1256C74.8526 28.0902 73.124 29.2632 70.6676 29.2632C67.5288 29.2632 65.55 27.0526 65.55 23.8947V22.7669H81.0392V20.015C81.0392 13.2481 76.6495 9.05263 70.3946 9.05263C64.39 9.05263 59.6818 12.9323 59.6818 20.015V22.8571C59.6818 29.9173 64.0033 33.8421 70.6903 33.8421ZM65.55 19.1579V18.9098C65.55 15.6617 67.5288 13.5188 70.4174 13.5188C73.3287 13.5188 75.2393 15.6617 75.2393 18.9098V19.1579H65.55Z" fill="white"/>
<path d="M142.945 16.1805C142.945 10.4737 145.47 7.18045 149.769 7.18045C153.294 7.18045 155.66 9.59398 155.91 12.8647H161.846V12.3008C161.573 6.21053 156.547 2.03759 149.723 2.03759C141.421 2.03759 136.691 7.42857 136.691 16.1579V19.9925C136.691 28.7218 141.376 34 149.723 34C156.524 34 161.551 29.9398 161.846 24.0526V23.4662H155.91C155.66 26.6241 153.34 28.8571 149.769 28.8571C145.425 28.8571 142.945 25.6767 142.945 19.9925V16.1805Z" fill="white"/>
<path d="M178.745 9.05263C172.103 9.05263 167.668 13.4286 167.668 20.0827V22.7218C167.668 29.8722 172.058 33.8421 178.745 33.8421C185.341 33.8421 189.753 29.8271 189.753 22.7218V20.0376C189.753 13.2707 185.341 9.05263 178.745 9.05263ZM178.745 13.6541C182.065 13.6541 183.703 16.5639 183.703 20.1955V22.6767C183.703 26.2857 182.179 29.218 178.745 29.218C175.288 29.218 173.718 26.2632 173.718 22.6767V20.1955C173.718 16.5865 175.401 13.6541 178.745 13.6541Z" fill="white"/>
<path d="M194.826 33.4135H200.831V1H194.826V33.4135Z" fill="white"/>
<path d="M217.912 9.05263C211.27 9.05263 206.835 13.4286 206.835 20.0827V22.7218C206.835 29.8722 211.225 33.8421 217.912 33.8421C224.508 33.8421 228.92 29.8271 228.92 22.7218V20.0376C228.92 13.2707 224.508 9.05263 217.912 9.05263ZM217.912 13.6541C221.232 13.6541 222.87 16.5639 222.87 20.1955V22.6767C222.87 26.2857 221.346 29.218 217.912 29.218C214.454 29.218 212.885 26.2632 212.885 22.6767V20.1955C212.885 16.5865 214.568 13.6541 217.912 13.6541Z" fill="white"/>
<path d="M235.061 33.4135H241.179V19.7218C241.179 16.4962 243.044 14.218 246.957 14.218C247.889 14.218 248.867 14.2857 249.322 14.4211V9.2782C248.867 9.18797 248.253 9.1203 247.434 9.1203C243.613 9.1203 241.839 11.6015 241.339 13.2256H241.043V9.4812H235.061V33.4135Z" fill="white"/>
<path d="M263.651 33.8421C270.543 33.8421 273.522 29.5789 273.773 26.6015H268.086C267.813 28.0902 266.085 29.2632 263.628 29.2632C260.49 29.2632 258.511 27.0526 258.511 23.8947V22.7669H274V20.015C274 13.2481 269.61 9.05263 263.355 9.05263C257.351 9.05263 252.643 12.9323 252.643 20.015V22.8571C252.643 29.9173 256.964 33.8421 263.651 33.8421ZM258.511 19.1579V18.9098C258.511 15.6617 260.49 13.5188 263.378 13.5188C266.289 13.5188 268.2 15.6617 268.2 18.9098V19.1579H258.511Z" fill="white"/>
<path d="M86.9312 16.0414C86.9312 18.2599 88.6325 19.6891 90.7645 19.6891C92.9611 19.6891 94.6408 18.2599 94.6408 16.0414C94.6408 13.7802 92.9611 12.3083 90.7645 12.3083C88.6325 12.3083 86.9312 13.7589 86.9312 16.0414Z" fill="#F5CE6A"/>
<path d="M103.909 16.0414C103.909 18.2599 105.61 19.6891 107.742 19.6891C109.939 19.6891 111.618 18.2599 111.618 16.0414C111.618 13.7802 109.939 12.3083 107.742 12.3083C105.61 12.3083 103.909 13.7589 103.909 16.0414Z" fill="#DF9D5E"/>
<path d="M120.886 16.0414C120.886 18.2599 122.588 19.6891 124.72 19.6891C126.916 19.6891 128.596 18.2599 128.596 16.0414C128.596 13.7802 126.916 12.3083 124.72 12.3083C122.588 12.3083 120.886 13.7589 120.886 16.0414Z" fill="#C2594E"/>
</svg>
