<svg width="129" height="12" viewBox="0 0 129 12" fill="none" xmlns="http://www.w3.org/2000/svg">
<circle cx="48.8836" cy="6.09985" r="4.2052" fill="#FF8200"/>
<ellipse cx="59.4566" cy="6.09985" rx="4.2052" ry="4.2052" fill="#F03F22"/>
<ellipse cx="38.3494" cy="6.09985" rx="4.24414" ry="4.2052" fill="#FFD602"/>
<path d="M74.0077 12C72.8419 12 71.8411 11.7541 71.0052 11.2623C70.1693 10.7596 69.5259 10.0656 69.075 9.18033C68.6241 8.28415 68.3986 7.25136 68.3986 6.08197C68.3986 4.91257 68.6241 3.87978 69.075 2.98361C69.5259 2.08743 70.1693 1.38798 71.0052 0.885247C71.8411 0.382514 72.8419 0.131148 74.0077 0.131148C75.3935 0.131148 76.5263 0.475409 77.4062 1.16393C78.297 1.84153 78.8524 2.79781 79.0724 4.03279H76.7463C76.6033 3.40984 76.2954 2.9235 75.8224 2.57377C75.3605 2.21312 74.7446 2.03279 73.9747 2.03279C72.9079 2.03279 72.072 2.39344 71.4671 3.11475C70.8622 3.83607 70.5598 4.82514 70.5598 6.08197C70.5598 7.3388 70.8622 8.32787 71.4671 9.04918C72.072 9.75956 72.9079 10.1148 73.9747 10.1148C74.7446 10.1148 75.3605 9.95082 75.8224 9.62295C76.2954 9.28415 76.6033 8.81967 76.7463 8.22951H79.0724C78.8524 9.40984 78.297 10.3333 77.4062 11C76.5263 11.6667 75.3935 12 74.0077 12Z" fill="white"/>
<path d="M84.8185 12C84.0266 12 83.3118 11.8197 82.6739 11.459C82.047 11.0984 81.5465 10.6011 81.1726 9.96721C80.8097 9.3224 80.6282 8.57923 80.6282 7.7377C80.6282 6.89617 80.8152 6.15847 81.1891 5.52459C81.563 4.87978 82.0635 4.37705 82.6904 4.01639C83.3283 3.65574 84.0431 3.47541 84.835 3.47541C85.6159 3.47541 86.3198 3.65574 86.9467 4.01639C87.5846 4.37705 88.085 4.87978 88.4479 5.52459C88.8219 6.15847 89.0088 6.89617 89.0088 7.7377C89.0088 8.57923 88.8219 9.3224 88.4479 9.96721C88.085 10.6011 87.5846 11.0984 86.9467 11.459C86.3088 11.8197 85.5994 12 84.8185 12ZM84.8185 10.1803C85.3684 10.1803 85.8469 9.97814 86.2538 9.57377C86.6607 9.15847 86.8642 8.54645 86.8642 7.7377C86.8642 6.92896 86.6607 6.3224 86.2538 5.91803C85.8469 5.50273 85.3739 5.29508 84.835 5.29508C84.2741 5.29508 83.7902 5.50273 83.3832 5.91803C82.9873 6.3224 82.7893 6.92896 82.7893 7.7377C82.7893 8.54645 82.9873 9.15847 83.3832 9.57377C83.7902 9.97814 84.2686 10.1803 84.8185 10.1803Z" fill="white"/>
<path d="M90.8969 11.8033V0H93.0085V11.8033H90.8969Z" fill="white"/>
<path d="M99.0926 12C98.3007 12 97.5858 11.8197 96.9479 11.459C96.321 11.0984 95.8206 10.6011 95.4467 9.96721C95.0837 9.3224 94.9023 8.57923 94.9023 7.7377C94.9023 6.89617 95.0892 6.15847 95.4632 5.52459C95.8371 4.87978 96.3375 4.37705 96.9644 4.01639C97.6023 3.65574 98.3172 3.47541 99.1091 3.47541C99.89 3.47541 100.594 3.65574 101.221 4.01639C101.859 4.37705 102.359 4.87978 102.722 5.52459C103.096 6.15847 103.283 6.89617 103.283 7.7377C103.283 8.57923 103.096 9.3224 102.722 9.96721C102.359 10.6011 101.859 11.0984 101.221 11.459C100.583 11.8197 99.8735 12 99.0926 12ZM99.0926 10.1803C99.6425 10.1803 100.121 9.97814 100.528 9.57377C100.935 9.15847 101.138 8.54645 101.138 7.7377C101.138 6.92896 100.935 6.3224 100.528 5.91803C100.121 5.50273 99.648 5.29508 99.1091 5.29508C98.5482 5.29508 98.0643 5.50273 97.6573 5.91803C97.2614 6.3224 97.0634 6.92896 97.0634 7.7377C97.0634 8.54645 97.2614 9.15847 97.6573 9.57377C98.0643 9.97814 98.5427 10.1803 99.0926 10.1803Z" fill="white"/>
<path d="M105.171 11.8033V3.67213H107.052L107.25 5.19672C107.547 4.67213 107.948 4.25683 108.454 3.95082C108.971 3.63388 109.576 3.47541 110.269 3.47541V5.68852H109.675C109.213 5.68852 108.8 5.75956 108.437 5.90164C108.074 6.04372 107.789 6.28962 107.58 6.63934C107.382 6.98907 107.283 7.47541 107.283 8.09836V11.8033H105.171Z" fill="white"/>
<path d="M115.543 12C114.718 12 113.987 11.8251 113.349 11.4754C112.711 11.1257 112.21 10.6339 111.847 10C111.484 9.36612 111.303 8.63388 111.303 7.80328C111.303 6.96175 111.479 6.21312 111.831 5.55738C112.194 4.90164 112.689 4.39344 113.316 4.03279C113.954 3.6612 114.701 3.47541 115.559 3.47541C116.362 3.47541 117.072 3.65027 117.687 4C118.303 4.34973 118.782 4.8306 119.123 5.44262C119.475 6.04371 119.651 6.71585 119.651 7.45902C119.651 7.57923 119.645 7.70492 119.634 7.83607C119.634 7.96721 119.629 8.10382 119.618 8.2459H113.398C113.442 8.87978 113.662 9.37705 114.058 9.7377C114.465 10.0984 114.954 10.2787 115.526 10.2787C115.955 10.2787 116.313 10.1858 116.599 10C116.896 9.80328 117.116 9.55191 117.258 9.2459H119.403C119.249 9.75956 118.991 10.2295 118.628 10.6557C118.276 11.071 117.836 11.3989 117.308 11.6393C116.791 11.8798 116.203 12 115.543 12ZM115.559 5.18033C115.042 5.18033 114.586 5.32787 114.19 5.62295C113.794 5.9071 113.541 6.34426 113.431 6.93442H117.506C117.473 6.39891 117.275 5.97268 116.912 5.65574C116.549 5.3388 116.098 5.18033 115.559 5.18033Z" fill="white"/>
<path d="M122.292 8.22951L122.226 5.52459H122.985C123.546 5.52459 124.057 5.47541 124.519 5.37705C124.981 5.27869 125.35 5.08743 125.625 4.80328C125.9 4.51913 126.037 4.10383 126.037 3.55738C126.037 3.03279 125.878 2.62295 125.559 2.32787C125.24 2.02186 124.816 1.86885 124.288 1.86885C123.739 1.86885 123.31 2.02186 123.002 2.32787C122.694 2.62295 122.54 3.02732 122.54 3.54098H120.544C120.533 2.88525 120.676 2.30055 120.972 1.78688C121.269 1.27322 121.698 0.868853 122.259 0.573771C122.831 0.27869 123.513 0.131148 124.305 0.131148C125.042 0.131148 125.691 0.267759 126.252 0.540983C126.824 0.814206 127.269 1.20765 127.588 1.72131C127.918 2.22404 128.083 2.84153 128.083 3.57377C128.083 4.32787 127.912 4.95082 127.571 5.44262C127.241 5.93442 126.785 6.30055 126.202 6.54098C125.63 6.78142 124.965 6.9071 124.206 6.91803L124.156 8.22951H122.292ZM123.233 11.918C122.848 11.918 122.529 11.7978 122.276 11.5574C122.034 11.3169 121.913 11.0273 121.913 10.6885C121.913 10.3388 122.034 10.0437 122.276 9.80328C122.529 9.56284 122.848 9.44262 123.233 9.44262C123.618 9.44262 123.931 9.56284 124.173 9.80328C124.415 10.0437 124.536 10.3388 124.536 10.6885C124.536 11.0273 124.415 11.3169 124.173 11.5574C123.931 11.7978 123.618 11.918 123.233 11.918Z" fill="white"/>
<path d="M5.38085 12C4.26248 12 3.30237 11.7606 2.50051 11.2817C1.69866 10.7922 1.08145 10.1165 0.648868 9.25453C0.21629 8.38194 0 7.37634 0 6.23771C0 5.09909 0.21629 4.09348 0.648868 3.22089C1.08145 2.3483 1.69866 1.66725 2.50051 1.17775C3.30237 0.688244 4.26248 0.443493 5.38085 0.443493C6.71024 0.443493 7.79696 0.778694 8.64101 1.4491C9.49562 2.10886 10.0284 3.03998 10.2394 4.24246H8.00797C7.87081 3.6359 7.57539 3.16236 7.12172 2.82184C6.67859 2.47067 6.08775 2.29509 5.3492 2.29509C4.32578 2.29509 3.52393 2.64625 2.94364 3.34858C2.36335 4.05091 2.07321 5.01395 2.07321 6.23771C2.07321 7.46147 2.36335 8.42451 2.94364 9.12684C3.52393 9.81853 4.32578 10.1644 5.3492 10.1644C6.08775 10.1644 6.67859 10.0048 7.12172 9.68551C7.57539 9.35563 7.87081 8.90337 8.00797 8.32874H10.2394C10.0284 9.47801 9.49562 10.3772 8.64101 11.0263C7.79696 11.6754 6.71024 12 5.38085 12Z" fill="white"/>
<path d="M11.9851 11.8085V0.315796H14.0109V5.10441C14.2746 4.66811 14.6281 4.32759 15.0712 4.08284C15.5249 3.82744 16.0419 3.69975 16.6222 3.69975C17.5928 3.69975 18.3419 4.00835 18.8695 4.62555C19.4075 5.24274 19.6766 6.14726 19.6766 7.33909V11.8085H17.6667V7.53064C17.6667 6.84959 17.5295 6.32816 17.2552 5.96635C16.9914 5.60455 16.5694 5.42365 15.9891 5.42365C15.4194 5.42365 14.9446 5.62583 14.5648 6.0302C14.1955 6.43457 14.0109 6.99857 14.0109 7.72218V11.8085H11.9851Z" fill="white"/>
<path d="M25.4277 12C24.6364 12 23.9348 11.8297 23.3229 11.4892C22.7109 11.1487 22.2309 10.6698 21.8827 10.0526C21.5345 9.43544 21.3604 8.72247 21.3604 7.91372C21.3604 7.09434 21.5293 6.36541 21.8669 5.72693C22.2151 5.08845 22.6898 4.59362 23.2912 4.24246C23.9032 3.88065 24.6206 3.69975 25.4436 3.69975C26.2138 3.69975 26.8943 3.87001 27.4851 4.21053C28.076 4.55106 28.5349 5.01927 28.862 5.61519C29.1996 6.20046 29.3684 6.85491 29.3684 7.57852C29.3684 7.69558 29.3631 7.81795 29.3526 7.94565C29.3526 8.07335 29.3473 8.20636 29.3368 8.3447H23.3704C23.4126 8.9619 23.6236 9.44608 24.0034 9.79724C24.3938 10.1484 24.8633 10.324 25.4119 10.324C25.8234 10.324 26.1663 10.2335 26.4406 10.0526C26.7255 9.86109 26.9365 9.61634 27.0736 9.31838H29.131C28.9833 9.81853 28.7354 10.2761 28.3872 10.6911C28.0496 11.0955 27.6276 11.4147 27.1211 11.6488C26.6252 11.883 26.0608 12 25.4277 12ZM25.4436 5.3598C24.9477 5.3598 24.5098 5.50346 24.13 5.79078C23.7502 6.06745 23.5075 6.4931 23.402 7.06774H27.311C27.2794 6.54631 27.0895 6.1313 26.7413 5.8227C26.3931 5.5141 25.9605 5.3598 25.4436 5.3598Z" fill="white"/>
</svg>
